<svg xmlns="http://www.w3.org/2000/svg">
  <svg id="pinely" viewBox="0 0 42 28">
    <path
      d="M0 15v-1l2-1 1-2V7l1-1 2-1h2v3H7L6 9v4l-1 1-2 1H0Zm8 10-2-1H4l-1-1v-4l-1-2-2-1v-1h3l2 1 1 1v4l1 1h1v3Zm-8-9v-2h3v2H0ZM42 15v1l-2 1-1 2v4l-1 1h-2l-2 1v-3h1l1-1v-4l1-1 2-1h3ZM34 5h2l2 1 1 1v4l1 2 2 1v1h-3l-2-1-1-1V9l-1-1h-1V5Zm8 9v2h-3v-2h3Z"
      fill="currentColor" fill-opacity="0.2" />
    <path d="m21 0 8 12h-3l3 5h-4l4 6h-6v4h-4v-4h-6l4-6h-4l3-5h-3l8-12Z" fill="currentColor" />
  </svg>
  <svg id="fountain-pen" viewBox="0 0 15 15">
    <path
      d="M10.3 0 8.6 2.5l4 3.8L15 4.8 10.3 0ZM8.5 3.2C7.4 4 6 4.3 3.6 4.3h-.2v.3c-.7 3-2.7 8.8-3 9.5l5.9-5.8v-.5c0-.4.3-.8.8-.8s.9.4.9.8a.9.9 0 0 1-1.2.9L.8 14.5c.7-.2 6.5-2.2 9.5-2.8h.3v-.3c0-2.4.3-3.8 1.1-4.9L8.5 3.2Z"
      fill="currentColor" />
  </svg>
  <svg id="world" viewBox="0 0 15 16">
    <path
      d="M7.5.9a7.4 7.4 0 1 0 0 14.8A7.4 7.4 0 0 0 7.5.9Zm-.4.7v3.1c-.8 0-1.6 0-2.3-.2l.4-1c.6-1.1 1.2-1.8 2-2Zm.7 0c.7.1 1.3.8 1.9 1.8l.4 1c-.7.2-1.5.3-2.3.3V1.6Zm-2.2.2L4.6 3l-.4 1.2a9 9 0 0 1-1.7-.6c.8-.9 1.9-1.6 3-2Zm3.7 0c1.2.3 2.3 1 3.1 1.9-.5.2-1 .5-1.7.6l-.5-1.2c-.2-.5-.5-1-.9-1.3Zm3.5 2.4c.8 1 1.3 2.3 1.4 3.8h-2.9c0-1.1-.2-2.1-.4-3l2-.8Zm-10.7 0c.5.3 1.2.6 2 .7-.3 1-.5 2-.5 3H.7c0-1.4.6-2.6 1.4-3.7Zm2.5.9c.8.2 1.7.3 2.5.3V8H4.3c0-1 .1-2 .3-2.9Zm5.7 0 .4 2.9h-3V5.4c1 0 1.8-.1 2.6-.3ZM.7 8.6h3c0 1 0 2 .3 3l-2 .7C1.4 11.3.9 10 .8 8.6Zm3.6 0H7v2.6c-.8 0-1.7 0-2.5.2-.2-.8-.3-1.8-.3-2.8Zm3.5 0h2.9c0 1-.2 2-.4 2.8l-2.5-.2V8.6Zm3.5 0h2.9c0 1.4-.6 2.7-1.4 3.7-.5-.3-1.2-.5-1.9-.7.2-1 .4-2 .4-3Zm-4.2 3.2V15c-.7-.2-1.3-.8-1.9-1.9a8 8 0 0 1-.4-1 13 13 0 0 1 2.3-.3Zm.7 0c.8 0 1.6.1 2.3.3a8 8 0 0 1-.4 1c-.6 1-1.2 1.7-2 1.9v-3.2Zm-3.6.4.5 1.2c.2.5.5 1 .9 1.4-1.2-.4-2.3-1-3-2l1.6-.6Zm6.5 0a9 9 0 0 1 1.7.6c-.8 1-1.9 1.6-3 2l.8-1.4.5-1.2Z"
      fill="currentColor" />
  </svg>
  <svg id="book-read" viewBox="0 0 30 30">
    <path
      d="M3 5a1 1 0 0 0-1 1v18a1 1 0 0 0 1 1h10l1 1a1 1 0 0 0 2 0l1-1h10a1 1 0 0 0 1-1V6a1 1 0 0 0-1-1h-9l-3 1-3-1H3zm1 2h8l2 2v14H4V7zm14 0h8v16H16V9l2-2z"
      fill="currentColor" />
  </svg>
  <svg id="headphones" viewBox="0 0 30 30">
    <path
      d="M15 4C8 4 3 9 3 16v5a1 1 0 1 0 2 0v-5a10 10 0 1 1 20 0v5a1 1 0 1 0 2 0v-5c0-7-5-12-12-12zM8 17l-1 1v7l1 1h1l2-2v-5l-2-2H8zm13 0-2 2v5l2 2h1l1-1v-7l-1-1h-1z"
      fill="currentColor" />
  </svg>
  <svg id="play" viewBox="0 0 50 50">
    <path d="M10 5v40l2-1 30-18 2-1-2-1L12 6Zm2 4 28 16-28 16Z" fill="currentColor" />
  </svg>
  <svg id="triangle" viewBox="0 0 30 21">
    <path d="M15 21 0 0h30L15 21Z" fill="currentColor" />
  </svg>
  <svg id="chevron-left">
    <use href="#chevron-right" style="transform: rotate(180deg); transform-origin: center" />
  </svg>
  <svg id="chevron-right" viewBox="0 0 7 12">
    <path
      d="M.3 11.6a1.2 1.2 0 0 1-.3-.8 1.2 1.2 0 0 1 .3-.9L4.2 6 .3 2A1.2 1.2 0 0 1 .3.5 1.2 1.2 0 0 1 2 .4l4.7 4.8A1.2 1.2 0 0 1 7 6a1.2 1.2 0 0 1-.3.8L2 11.6a1.2 1.2 0 0 1-.8.4 1.1 1.1 0 0 1-.9-.4Z"
      fill="currentColor" />
  </svg>
  <svg id="quote" viewBox="0 0 32 25">
    <path
      d="M0 3c0-1 1-3 3-3h9l3 3v9c0 2-2 3-3 3H3c-2 0-3-1-3-3V3ZM17 3l3-3h9c2 0 3 2 3 3v9c0 2-1 3-3 3h-9c-1 0-3-1-3-3V3Z"
      fill="currentColor" />
    <path d="M14 12v2L4 24a2 2 0 1 1-3-2l10-10h3Zm17 0v2L21 24a2 2 0 1 1-3-2l10-10h3Z"
      fill="currentColor" />
  </svg>
  <svg id="star" viewBox="0 0 17 14">
    <path d="m8 0 2 5h6l-5 4 2 5-5-3-4 3 1-5-4-4h6l1-5Z" fill="currentColor" />
  </svg>
  <svg id="star-magic" viewBox="0 0 210 197">
    <path
      d="M114.4 0c-1.7 0-3.3.7-4.4 1.9a6.1 6.1 0 0 0-1.8 4.3V44c0 1.7.6 3.3 1.8 4.4a6.5 6.5 0 0 0 9 0 6.1 6.1 0 0 0 2-4.4V6.2a6 6 0 0 0-2-4.4 6.4 6.4 0 0 0-4.6-1.8ZM6.2 69.3c-1.6 0-3.1.7-4.2 1.8a6.1 6.1 0 0 0-.6 8.3c1 1.2 2.4 2 4 2.3l29.4 4.8a6.2 6.2 0 0 0 7.4-5.1 6 6 0 0 0-1.2-4.6 6.4 6.4 0 0 0-4.1-2.6L7.5 69.4H6.2Zm197.6 17.2-1.5.1-26.1 5.3a6.5 6.5 0 0 0-4 2.6 6.1 6.1 0 0 0 4 9.6h2.6l26.1-5.3a6.4 6.4 0 0 0 3.8-2.4 6 6 0 0 0-.7-8.2 6.5 6.5 0 0 0-4.2-1.7Zm-65.5 83.3a6.5 6.5 0 0 0-5.5 2.8 6 6 0 0 0-.4 6.1l7.2 14.8a6.6 6.6 0 0 0 8.5 2.9c1.5-.7 2.7-2 3.3-3.5a6 6 0 0 0-.2-4.8l-7.3-14.7c-.5-1-1.3-2-2.3-2.6-1-.6-2.1-1-3.3-1ZM79.2 78c-.5-2.6 2.7-4.4 4.8-2.6L104.3 93a3 3 0 0 0 3.3.4l23.7-13.3c2.4-1.3 5.2 1 4 3.6l-11 24.2c-.6 1.1-.3 2.4.6 3.2l20.3 17.8c2.1 1.8.6 5.1-2.2 4.8l-27.1-2.7c-1.3-.2-2.5.5-3 1.6L102 157c-1.2 2.4-5 2-5.5-.6l-5.7-26c-.3-1.1-1.3-2-2.5-2.2L61 125.5c-2.7-.3-3.5-3.9-1.1-5.2L83.6 107c1-.6 1.6-1.8 1.3-3l-5.7-26Z"
      fill="currentColor" />
  </svg>
  <svg id="award" viewBox="0 0 50 69">
    <path
      d="M18.6 0c-1.9 0-3.7 1-4.7 2.8l-.4.6A3 3 0 0 1 11 4.8h-.8c-3 0-5.5 2.6-5.5 5.6v.8c0 1-.6 1.9-1.5 2.4l-.6.4a5.8 5.8 0 0 0-2 7.7l.3.6c.5.9.5 2 0 2.9l-.3.6a5.8 5.8 0 0 0 2 7.7l.6.3a3 3 0 0 1 1.5 2.5v.7c0 2.5 1.7 4.6 3.9 5.3L1.5 58a1.4 1.4 0 0 0 .6 1.8c.2.2.4.2.7.2h9l5 6.5a1.4 1.4 0 0 0 2 .2l.4-.5 4.3-10 4.3 10a1.4 1.4 0 0 0 1.1.8 1.4 1.4 0 0 0 1.3-.5l5.1-6.5h9a1.4 1.4 0 0 0 1.2-.6 1.4 1.4 0 0 0 0-1.4l-7.1-15.7a5.7 5.7 0 0 0 3.8-5.3v-.7c0-1 .6-2 1.5-2.5l.6-.3c2.6-1.6 3.5-5 2-7.7L46 25a3 3 0 0 1 0-2.8l.3-.6c1.5-2.7.6-6.1-2-7.7l-.6-.4a3 3 0 0 1-1.5-2.4v-.8c0-3-2.5-5.5-5.5-5.6h-.8c-1 0-1.9-.6-2.4-1.4l-.4-.6a5.7 5.7 0 0 0-7.6-2L25 1c-.9.4-2 .4-2.8 0l-.6-.4a5.6 5.6 0 0 0-3-.7Zm-.1 2.8a3 3 0 0 1 1.6.4l.7.3c1.7 1 3.7 1 5.4 0l.7-.3c1.3-.8 3-.4 3.9 1l.3.6c1 1.7 2.8 2.8 4.8 2.8h.7a3 3 0 0 1 2.9 2.9v.7c0 2 1 3.8 2.7 4.8l.6.4a3 3 0 0 1 1 4l-.3.6c-1 1.7-1 3.8 0 5.5l.4.6a3 3 0 0 1-1 4l-.7.3a5.8 5.8 0 0 0-2.7 4.8v.8a3 3 0 0 1-2.9 2.8h-.7c-2 .1-3.7 1.1-4.8 2.8l-.3.6a2.9 2.9 0 0 1-4 1.1l-.6-.3c-1.7-1-3.7-1-5.4 0l-.7.3c-1.3.8-3 .3-3.9-1l-.3-.7A5.7 5.7 0 0 0 11 40h-.7a3 3 0 0 1-2.9-3v-.7c0-2-1-3.7-2.7-4.8l-.6-.3a3 3 0 0 1-1-4l.3-.6c.9-1.7.9-3.8 0-5.5l-.4-.7a3 3 0 0 1 1-4l.7-.3c1.6-1 2.7-2.8 2.7-4.8v-.7a3 3 0 0 1 2.9-2.9h.7c2 0 3.7-1 4.8-2.8l.3-.6a3 3 0 0 1 2.3-1.4Zm17 40 6.7 14.4h-7.6a1.4 1.4 0 0 0-1 .6l-4.1 5.1L25 52.7l2.3-5.3c2.2.3 4.5-.7 5.7-2.7l.4-.6c.5-.8 1.2-1.2 2-1.4Zm-24 0c.9 0 1.6.6 2 1.3l.4.6c1.5 2.6 5 3.5 7.6 2l.6-.3c.8-.5 1.8-.5 2.7 0l-7.2 16.5-4-5.1a1.4 1.4 0 0 0-1.2-.6H5l6.7-14.5Z"
      fill="currentColor" />
  </svg>
  <svg id="1-dot-square" viewBox="0 0 30 30">
    <path
      d="M13 .8c1-1 3-1 4 0L29.2 13c1 1 1 3 0 4L17 29.2a2.9 2.9 0 0 1-4 0L.8 17a2.9 2.9 0 0 1 0-4L13 .8Z"
      fill="#69477A" />
    <path d="M18 15a3 3 0 1 1-6 0 3 3 0 0 1 6 0Z" fill="#fff" />
  </svg>
  <svg id="exclamation-pine" viewBox="0 0 20 34">
    <path d="m10 .5 10 14.7h-4l4 5.9h-5l5 7.3h-7.3v5.1H7.3v-5H0L5 21H0l4-6H0L10 .6Z"
      fill="currentColor" />
    <path
      d="m11.5 12-.3 7.6H8.8L8.6 12h3ZM10 23.3c-.4 0-.7-.2-1-.5-.3-.3-.4-.6-.4-1s.1-.8.4-1c.3-.3.6-.5 1-.5s.8.2 1 .4a1.4 1.4 0 0 1 .3 1.8c-.1.3-.3.4-.5.6l-.8.2Z"
      fill="#fff" />
  </svg>
  <svg id="google-chat" viewBox="0 0 311 320">
    <!-- Compressed Version of Google Calendar Icon from
    https://en.wikipedia.org/wiki/File:Google_Chat_icon_(2023).svg -->
    <path d="M76.4.5V77H0V20.8a24 24 0 0 1 3.5-10C8 4 14.3.8 22.8.7L76.3.5Z" fill="#0066DA" />
    <path d="M76.4.5h157.4l1 .3.3.3-.3.1-.2.3V77H76.4V.5Z" fill="#FBBC04" />
    <path d="m235 1 75.5 75.8-75.9.2V1.5l.2-.3.3-.1Z" fill="#EA4335" />
    <path d="M0 77h76.4v105.7H0V77Z" fill="#2684FC" />
    <path
      d="m310.5 76.8.5.3v162c-1.8 9.6-6.8 15.9-15 18.7-3 1-7.4 1.5-13 1.5a521871.9 521871.9 0 0 0-129.8 0c-.3 0-.6 0-.8.3l-56 56c-2.9 2.9-6.1 4.5-10.3 3.9a11 11 0 0 1-8.4-6c-.8-1.4-1.2-4-1.2-7.8v-84.9l37.7-37.7a1.8 1.8 0 0 1 1.3-.5h118.3a.8.8 0 0 0 .8-.8V77l76-.2Z"
      fill="#00AC47" />
    <path
      d="M76.4 182.7V259c-16 .1-31.8.2-47.5.1-6.5 0-11.3-.5-14.1-1.5-8.1-2.8-13-9.1-14.8-18.8v-56.2h76.4Z"
      fill="#00832D" />
  </svg>
  <svg id="google-calendar" viewBox="0 0 200 200">
    <!-- Compressed Version of Google Chat Icon from
    https://en.m.wikipedia.org/wiki/File:Google_Calendar_icon_(2020).svg -->
    <path d="M153 46H48.1L48 153h105V46Z" fill="#fff" />
    <path d="m153 200 47-47h-47v47Z" fill="#EA4335" />
    <path d="M48 200h105v-47H48v47Z" fill="#34A853" />
    <path d="M16 0A16 16 0 0 0 0 16v137h48l.1-107H153V0H16Z" fill="#4285F4" />
    <path d="M0 153v31.3C0 193 7.2 200 16 200h32v-47H0Z" fill="#188038" />
    <path d="M153 46v107h47V46h-47Z" fill="#FBBC04" />
    <path d="M200 46V15.3C200 7 193 0 184.3 0H153v46h47Z" fill="#1967D2" />
  </svg>

  <svg id="chronly" viewBox="0 0 20 26">
    <g fill="currentColor">
      <path d="m13.8 13 6.2 6.2-1.6 1.6-7.8-7.8 7.8-7.8L20 6.8 13.8 13Z" />
      <path
        d="M12.2 23a10 10 0 1 1 6.2-17.8L20 3.6a12.2 12.2 0 1 0 0 18.7l-1.6-1.5a9.9 9.9 0 0 1-6.2 2.2Z" />
    </g>
  </svg>
  <svg id="cookie" viewBox="0 0 20 20" fill="none">
    <path fill="currentColor"
      d="M10 .6a9.4 9.4 0 1 0 9.3 8.6c0-.2 0-.3-.2-.4h-.5a1.5 1.5 0 0 1-2.2-.7L16 8h-.4a2.7 2.7 0 0 1-3.6-3.6v-.4l-.2-.3a1.6 1.6 0 0 1-.8-2.2.4.4 0 0 0-.3-.7H10Zm5.8 0a.9.9 0 1 0 0 1.8.9.9 0 0 0 0-1.8ZM15 4.2a.7.7 0 1 0 0 1.3.7.7 0 0 0 0-1.3ZM8.4 5.5a.7.7 0 1 1 0 1.4.7.7 0 0 1 0-1.4Zm10.5 0a.4.4 0 0 0 0 1 .4.4 0 0 0 0-1ZM5.5 7.8a1.3 1.3 0 1 1 0 2.6 1.3 1.3 0 0 1 0-2.6Zm4.3 1.8a.7.7 0 1 1 0 1.3.7.7 0 0 1 0-1.3Zm-3.4 3a.9.9 0 1 1 0 1.9.9.9 0 0 1 0-1.8Zm6 .5a1.1 1.1 0 1 1 0 2.2 1.1 1.1 0 0 1 0-2.2Z" />
  </svg>
  <svg id="check" viewBox="0 0 22 17" fill="none">
    <path
      d="M7.5001 12.9008L2.60013 8.0008L0.966797 9.6342L7.5001 16.1675L21.5001 2.16751L19.8668 0.53418L7.5001 12.9008Z"
      fill="currentColor" />
  </svg>
  <svg id="check-circle" viewBox="0 0 50 50">
    <path
      d="M 25 2 C 12.309534 2 2 12.309534 2 25 C 2 37.690466 12.309534 48 25 48 C 37.690466 48 48 37.690466 48 25 C 48 12.309534 37.690466 2 25 2 z M 25 4 C 36.609534 4 46 13.390466 46 25 C 46 36.609534 36.609534 46 25 46 C 13.390466 46 4 36.609534 4 25 C 4 13.390466 13.390466 4 25 4 z M 34.988281 14.988281 A 1.0001 1.0001 0 0 0 34.171875 15.439453 L 23.970703 30.476562 L 16.679688 23.710938 A 1.0001 1.0001 0 1 0 15.320312 25.177734 L 24.316406 33.525391 L 35.828125 16.560547 A 1.0001 1.0001 0 0 0 34.988281 14.988281 z"
      fill="currentColor" />
  </svg>
  <svg id="gear-tool-hand" viewBox="0 0 42 46">
    <path fill="currentColor"
      d="M24.3.7c-.6.4-1 1-1 1.7v.5l-.7.3-1.4.5-.6.3-.3-.2a2 2 0 0 0-2-.6c-.4.1-.5.2-2 1.6-1.4 1.5-1.4 1.6-1.5 2-.2.7 0 1.3.5 1.9l.3.3-.3.5-.5 1.4-.3.8h-.6c-.7.1-1.2.4-1.6 1-.2.4-.2.4-.2 2.3 0 2.2 0 2.6.5 3.1.5.4 1 .6 1.4.6h.5l.2.6c0 .3.3 1 .5 1.3l.4.8-.3.3c-.4.5-.6.9-.6 1.4l.2 1 3 3c.8.3 1.6.2 2.2-.3l.5-.4.8.4 1.3.5.6.2v.5c0 .2 0 .6.2.8.2.4.8 1 1.2 1 .6.2 3.7.2 4.2 0a2 2 0 0 0 1.3-1.9v-.4l.6-.2c.4 0 1-.3 1.4-.5l.7-.4.5.4c.7.5 1.4.6 2.2.3l3-3c.2-.3.2-.6.2-1 0-.5-.1-.9-.6-1.4l-.2-.3.3-.8.6-1.3.2-.6h.4c.5 0 1-.2 1.4-.6.5-.5.6-.9.6-3 0-2 0-2-.3-2.4-.3-.6-.8-.9-1.5-1H39l-.3-.8-.6-1.4L38 9l.3-.3c.4-.6.6-1.2.5-1.9-.1-.4-.2-.5-1.6-2-1.5-1.4-1.6-1.5-2-1.6-.7-.1-1.3 0-2 .6L33 4l-.6-.3-1.4-.5-.7-.3v-.5c-.1-.8-.5-1.3-1.1-1.7l-.5-.2h-3.9l-.5.2Zm4.2 2.4c0 1.2 0 1.2 1.6 1.6l1.9.8 1.2.5c.1 0 .4-.1.8-.5l.7-.6L36 6l1 1.3-.5.5c-.8.8-.8 1-.2 2.1.4.7.8 1.8 1 2.7.3.7.5.8 1.5.9h.8V17h-.8c-1 .1-1.2.2-1.5 1-.2 1-.6 2-1 2.7-.6 1-.6 1.1.1 1.9.5.5.6.6.5.7l-1.2 1.3-1 1-.6-.4c-.5-.5-.8-.7-1-.7l-1.4.6-1.4.6h-.2v-3.8l.4-.1a8.2 8.2 0 0 0 3.2-3.2c.4-.7.8-2 1-2.8a8 8 0 0 0-3.2-7.2c-1.2-.9-2.1-1-2.7-.2-.4.4-.4.5-.4 3.4 0 3.2 0 3.4-.7 4-.7.6-1.4.6-2 0-.7-.6-.8-.8-.7-4 0-2.9 0-3-.4-3.4-.7-.7-1.5-.7-2.8.2a8 8 0 0 0-3 5.4 8 8 0 0 0 1.2 5c.7 1 2 2.2 3 2.7l.3.2v3.7h-.2l-1.3-.6a7 7 0 0 0-1.4-.6c-.3 0-.5.2-1 .7l-.6.5-1-1.1-1.3-1.3s0-.2.5-.7c.7-.8.7-1 .2-1.9-.4-.7-.8-1.7-1.1-2.7-.2-.8-.4-.9-1.4-1h-.8v-3.3l.8-.1c1 0 1.2-.2 1.3-.9l1.1-2.7c.7-1 .6-1.3-.2-2l-.5-.6L17.6 6a15 15 0 0 1 1.2-1.2s.4.2.7.6l.8.5a6 6 0 0 0 1.3-.5 14 14 0 0 1 3-1.2c.3-.1.5-.5.5-1.3v-.7h3.3V3Zm-5.2 9c0 2.5 0 3.1.4 3.9.7 1.3 2.3 2.2 3.5 1.9a3.7 3.7 0 0 0 3-3V9.7l.5.4c1 .6 1.8 2 2.1 3.2.2.8.2 2.2 0 3a6.2 6.2 0 0 1-3.3 4 3 3 0 0 0-.9.5l-.1 3.8V28H25v-3.5a16 16 0 0 0-.2-3.8l-.8-.5a6 6 0 0 1-3.5-6.4 6.2 6.2 0 0 1 2.7-4.2V12Z" />
    <path fill="currentColor"
      d="M1.6 29.8a3 3 0 0 0-.7.4c-.3.3-.7.8-.8 1.2v5.2c0 5.5 0 5.5.5 6.2l.8.6c.4.2.5.2 2.7.2 2.1 0 2.3 0 2.7-.2.5-.2.9-.6 1.1-1l.2-.4h2l5 1.3a915 915 0 0 1 8 2.1c1.5.3 3.1-.1 4.6-1.1l2.3-1.7c.5-.6-.3-1.6-1-1.3l-1.2.8c-2.5 1.7-3.3 2-5.7 1.3l-6.4-1.8-5.3-1.4H8.2v-7.1h1c1-.1 1.2-.2 2.1-.5a9 9 0 0 1 3.5-.8c1.8 0 3.2.7 5.1 2.4 1 .8.7.8 4.2.8 2.8 0 3 0 3.3.3.6.3.9 1.1.6 1.7-.1.4-.6.8-1 1h-4.3a46 46 0 0 0-4.2.1c-.3.1-.5.6-.5.8l.3.6.2.2h8.9l.6-.2a4 4 0 0 0 1.6-1.6c.2-.4.2-.7.3-1.3v-.8l3.6-1.8 4-2c.8 0 1.4.6 1.4 1.4 0 .7-.2.9-2.1 2.3-2 1.5-2.1 1.6-1.8 2.3.1.2.4.4.8.4.2 0 .3 0 2.3-1.5 2.2-1.5 2.6-2 2.6-3.5 0-.7 0-1-.2-1.3a3.2 3.2 0 0 0-3.9-1.7l-4 2-3.6 1.9-.3-.3-.8-.5c-.4-.2-.5-.2-3.4-.2h-3l-.5-.5a10.7 10.7 0 0 0-4.2-2.5c-.6-.2-1-.2-2-.2-1.4 0-2 .1-3.8.7a5 5 0 0 1-2.1.5c-.8 0-.9 0-1-.2 0-.4-.5-.8-1-1.1l-.4-.3H4.3l-2.7.1Zm4.6 1.8.2.2v4.8l-.1 5c-.2.2-.3.2-2.2.2-1.9 0-2 0-2.2-.2l-.1-5V32l.2-.2c.2-.3.2-.3 2-.3 1.9 0 2 0 2.2.2Z" />
    <path fill="currentColor" d="M32.2 39c-.6.2-.7 1-.3 1.4.7.7 1.7 0 1.4-.8-.1-.5-.7-.8-1-.6Z" />
  </svg>
  <svg id="sprint" viewBox="0 0 46 44">
    <path fill="currentColor"
      d="M14.7.7a2 2 0 0 0-1.1.7c-.5.5-.6.8-.7 1.9v1H11c-1.8 0-1.9 0-2.3.3-.5.2-.9.6-1 1.1-.2.3-.3.6-.3 3.1 0 3.7 0 3.3 2 5.4l1.5 1.5-.7.7A14.7 14.7 0 0 0 8.8 34l.4.6H5l-4.2.1-.3.3-.3.5c0 .3.3.8.6.9h11c11 0 11 0 11.6-.2 3.9-1 6.7-3.9 7.6-7.6A10.2 10.2 0 0 0 16.6 17l-.3-.6c-.1-.4-.3-.6-.7-1l-.5-.5.5-.3 3-1c1.3-.2 3.6-.2 5 0 2.5.6 4.5 1.7 6.3 3.4a12.9 12.9 0 0 1 3.8 11.2c-.4 2.6-1.7 5-3.7 7a12 12 0 0 1-6.3 3.5c-.7.2-1.1.2-4.9.3-4.5 0-4.4 0-4.7.6-.1.3 0 .6.3 1l.2.1h23.9v1c0 1.2.2 1.6 1 1.6.3 0 .4-.1 3-2.5l2.7-2.6-.1-.8c-.2-.4-5.2-5.2-5.5-5.2-.2-.1-.6 0-.9.2-.2.2-.2.3-.2 1.3v1h-5.6l.2-.3c1-1.7 1.8-3.4 2.2-5.3a14.7 14.7 0 0 0-10.1-16.9A15 15 0 0 0 13 14l-.8.6-1.4-1.4a19 19 0 0 1-1.5-1.6V9l.1-2.7 1.8-.1H13v1c0 .8 0 1 .3 1.4.2.4.5.7 1 1 .3.2.4.2 7.3.2H29a3 3 0 0 0 1.4-1.1l.2-.4V5.4c0-3.1 0-3.3-.4-4l-.7-.5-.5-.2H14.7Zm14 1.8.1 2.7-.1 2.6-7 .1-6.9-.1-.1-2.7V2.6h.2c.2-.2 1.7-.2 6.9-.2l6.8.1Zm-14.5 14c.8.4.7 1.7-.1 2.1-.7.3-1.4 0-1.7-.6-.2-.5-.2-.9.1-1.3.5-.5 1.2-.6 1.7-.3Zm8.6 1.4a8 8 0 0 1 5.8 4.6c.7 1.3.9 2 .9 3.7 0 1.2 0 1.5-.2 2.1-.8 3-3.1 5.3-6 6.1-.6.2-1 .2-2.3.2l-2.1-.1c-5.6-2-8-7.8-5.1-12.7.5-.8 2-2.3 2.8-2.8a9.8 9.8 0 0 1 3.6-1.3c.5 0 2 0 2.6.2ZM11 19.1c.2.4 1 1 1.4 1.2.3 0 .3.1 0 .5-.4.7-1 2.2-1.3 3.4-.2 1-.2 3 0 4 .6 2.5 1.8 4.5 3.9 6.2l.3.2h-3.8L11 34a12.7 12.7 0 0 1-.2-15.2l.2.4Zm31.9 18.4.3.3-.6.6-1.4 1.3-.8.7v-.5c0-.3-.2-.5-.3-.7l-.3-.2H28.1l.5-.4 2.5-1.8.3-.4h8.3l.3-.2c.2-.3.2-.4.2-.7V35l1.2 1 1.4 1.4Z" />
    <path fill="currentColor"
      d="M16.9 4.5a1 1 0 0 0-.4.6c0 .2 0 .3.3.6l.3.3h4.6l4.8-.1c.2-.1.5-.5.5-.8a1 1 0 0 0-.5-.7c-.2-.1-1.5-.2-4.8-.2h-4.6l-.2.3ZM.9 39l-.5.4c-.2.3-.2.8.2 1.1.2.2.2.2 3.6.2h3.4l.2-.2c.4-.4.4-.8 0-1.2l-.2-.3H4.4a37 37 0 0 0-3.5 0Zm9.8 0c-.3.2-.6.7-.5 1 .2.7 1 1 1.5.5.3-.4.3-.8 0-1.2-.3-.3-.6-.4-1-.2Z" />
  </svg>
</svg>
